<?xml version="1.0" encoding="UTF-8"?>
<!DOCTYPE svg PUBLIC "-//W3C//DTD SVG 1.1//EN" "http://www.w3.org/Graphics/SVG/1.1/DTD/svg11.dtd">
<!-- Creator: CorelDRAW 2026 -->
<svg xmlns="http://www.w3.org/2000/svg" xml:space="preserve" width="6.70868in" height="6.70868in" version="1.1" style="shape-rendering:geometricPrecision; text-rendering:geometricPrecision; image-rendering:optimizeQuality; fill-rule:evenodd; clip-rule:evenodd"
viewBox="0 0 3669.03 3669.03"
 xmlns:xlink="http://www.w3.org/1999/xlink"
 xmlns:xodm="http://www.corel.com/coreldraw/odm/2003">
 <defs>
  <style type="text/css">
   <![CDATA[
    .fil1 {fill:#67C15E}
    .fil0 {fill:white}
   ]]>
  </style>
 </defs>
 <g id="Layer_x0020_1">
  <metadata id="CorelCorpID_0Corel-Layer"/>
  <g id="_2829651954160">
   <ellipse class="fil0" cx="1903.93" cy="1857.07" rx="1445.45" ry="1480.77"/>
   <g>
    <g id="Icons">
     <g id="Color-">
      <path id="Whatsapp" class="fil1" d="M1833.98 0c-1011.34,0 -1833.98,822.88 -1833.98,1834.5 0,401.2 129.38,773.26 349.32,1075.27l-228.58 681.59 705.13 -225.36c290.02,191.97 636.12,303.03 1009.17,303.03 1011.34,0 1833.98,-822.91 1833.98,-1834.5 0,-1011.62 -822.65,-1834.5 -1833.98,-1834.5l-1.06 0 0 -0.03zm-512.15 931.84c-35.57,-85.19 -62.53,-88.42 -116.42,-90.61 -18.35,-1.06 -38.8,-2.13 -61.46,-2.13 -70.11,0 -143.41,20.49 -187.63,65.78 -53.89,55 -187.59,183.32 -187.59,446.49 0,263.16 191.92,517.68 217.78,553.29 26.96,35.55 374.15,583.43 913.23,806.71 421.56,174.71 546.66,158.52 642.6,138.03 140.15,-30.19 315.91,-133.77 360.13,-258.84 44.21,-125.13 44.21,-231.9 31.25,-254.55 -12.93,-22.64 -48.53,-35.55 -102.42,-62.55 -53.89,-26.97 -315.91,-156.39 -365.51,-173.65 -48.53,-18.32 -94.88,-11.84 -131.51,39.94 -51.76,72.26 -102.42,145.61 -143.41,189.81 -32.35,34.52 -85.2,38.84 -129.38,20.49 -59.31,-24.78 -225.33,-83.07 -430.2,-265.33 -158.5,-141.26 -266.31,-317.04 -297.57,-369.88 -31.28,-53.9 -3.23,-85.22 21.54,-114.32 26.96,-33.45 52.83,-57.16 79.79,-88.45 26.96,-31.26 42.05,-47.45 59.31,-84.13 18.35,-35.58 5.39,-72.26 -7.55,-99.23 -12.93,-26.97 -120.74,-290.13 -164.96,-396.87z"/>
     </g>
    </g>
   </g>
  </g>
 </g>
</svg>
